<?xml version="1.0" encoding="utf-8"?>
<!-- Generator: Adobe Illustrator 16.0.0, SVG Export Plug-In . SVG Version: 6.00 Build 0)  -->
<!DOCTYPE svg PUBLIC "-//W3C//DTD SVG 1.1//EN" "http://www.w3.org/Graphics/SVG/1.1/DTD/svg11.dtd">
<svg version="1.1" id="Layer_1" xmlns="http://www.w3.org/2000/svg" xmlns:xlink="http://www.w3.org/1999/xlink" x="0px" y="0px"
	 width="216px" height="216px" viewBox="0 0 216 216" enable-background="new 0 0 216 216" xml:space="preserve">
<g>
	<path fill-rule="evenodd" clip-rule="evenodd" fill="#fcd507" d="M139.456,132.468c3.944,3.963,7.802,7.84,11.821,11.879
		c2.766-2.777,5.572-5.61,8.395-8.427c2.902-2.896,5.121-2.941,7.944-0.121c12.192,12.176,24.4,24.335,36.545,36.558
		c6.28,6.321,8.382,13.944,5.858,22.474c-2.475,8.364-8.257,13.636-16.805,15.446c-7.251,1.536-13.928-0.155-19.359-5.266
		c-6.194-5.829-12.111-11.954-18.136-17.963c-6.522-6.506-13.036-13.022-19.543-19.544c-2.964-2.971-2.957-5.124,0.021-8.108
		c2.821-2.828,5.667-5.631,8.311-8.255c-4.024-4.016-7.893-7.874-11.767-11.739c-32.65,29.565-83.186,24.121-110.248-8.508
		C-2.51,100.746-0.667,56.268,27.141,27.946C54.716-0.14,99.363-2.596,130.136,22.553c16.754,13.692,26.187,31.564,27.962,53.159
		C159.866,97.224,153.258,116.166,139.456,132.468z M22.938,82.006c0.076,32.468,26.552,58.846,58.867,58.651
		c32.433-0.195,58.619-26.46,58.587-58.759c-0.033-32.358-26.589-58.815-58.906-58.688C49.148,23.338,22.863,49.734,22.938,82.006z"
		/>
	<path fill-rule="evenodd" clip-rule="evenodd" fill="#fcd507" d="M131.345,82.108c-0.191,27.677-22.562,49.767-50.171,49.542
		c-27.439-0.226-49.452-22.711-49.212-50.27C32.2,54.157,54.825,31.891,81.901,32.233C109.467,32.583,131.532,54.84,131.345,82.108z
		 M119.213,80.01c-0.38-2.282-0.639-4.591-1.159-6.84c-3.79-16.403-19.034-28.607-35.73-28.665c-3.074-0.011-5.089,1.688-5.16,4.349
		c-0.071,2.644,1.885,4.501,4.911,4.658c0.351,0.018,0.703,0.011,1.054,0.023c14.223,0.479,26.454,12.694,26.941,26.903
		c0.138,3.988,1.744,6.064,4.645,6.003C117.729,86.378,119.246,84.133,119.213,80.01z"/>
</g>
</svg>
