<?xml version="1.0" encoding="utf-8"?>
<!-- Generator: Adobe Illustrator 16.0.0, SVG Export Plug-In . SVG Version: 6.00 Build 0)  -->
<!DOCTYPE svg PUBLIC "-//W3C//DTD SVG 1.1//EN" "http://www.w3.org/Graphics/SVG/1.1/DTD/svg11.dtd" [
	<!ENTITY ns_flows "http://ns.adobe.com/Flows/1.0/">
	<!ENTITY ns_extend "http://ns.adobe.com/Extensibility/1.0/">
	<!ENTITY ns_ai "http://ns.adobe.com/AdobeIllustrator/10.0/">
	<!ENTITY ns_graphs "http://ns.adobe.com/Graphs/1.0/">
]>
<svg version="1.1" id="Layer_1" xmlns:x="&ns_extend;" xmlns:i="&ns_ai;" xmlns:graph="&ns_graphs;"
	 xmlns="http://www.w3.org/2000/svg" xmlns:xlink="http://www.w3.org/1999/xlink" xmlns:a="http://ns.adobe.com/AdobeSVGViewerExtensions/3.0/"
	 x="0px" y="0px" width="216px" height="216px" viewBox="0 0 216 216" enable-background="new 0 0 216 216" xml:space="preserve">
<g>
	<path fill-rule="evenodd" clip-rule="evenodd" fill="#FCFCFC" d="M50.114,187.751c0.139,0.183-0.061-0.038-0.214-0.284
		c-6.027-9.726-12.05-19.451-18.154-29.307c0.678-0.399,1.259-0.771,1.87-1.094c7.026-3.729,14.048-7.464,21.093-11.162
		c1.811-0.95,3.687-1.802,5.56-2.646c4.929-2.226,9.984-2.502,15.22-0.916c10.142,3.073,20.297,6.114,30.477,9.078
		c2.519,0.734,5.157,1.123,7.743,1.663c4.251,0.889,6.945,4.201,6.228,7.668c-0.786,3.785-4.425,5.964-8.986,4.952
		c-7.808-1.732-15.546-3.724-23.314-5.605c-0.543-0.132-1.08-0.303-1.633-0.382c-2.35-0.333-4.194,0.689-4.64,2.547
		c-0.467,1.949,0.524,3.598,2.835,4.22c5.626,1.516,11.255,3.043,16.948,4.327c4.829,1.088,9.729,1.95,14.632,2.715
		c7.299,1.139,13.99-0.466,20.324-3.896c12.04-6.521,24.17-12.91,36.259-19.356c4.605-2.455,9.335-4.642,14.677-5.395
		c6.636-0.938,10.74,2.707,9.845,8.665c-0.345,2.3-1.762,3.802-3.895,4.998c-19.951,11.196-39.865,22.449-59.806,33.66
		c-3.696,2.079-7.406,4.15-11.215,6.049c-5.271,2.625-10.809,2.89-16.598,1.442c-16.203-4.044-32.43-8.014-48.684-11.882
		C54.825,187.367,52.731,187.751,50.114,187.751z"/>
	<path fill-rule="evenodd" clip-rule="evenodd" fill="#FCFCFC" d="M102.555,136.857c-22.26-0.169-39.735-16.491-39.563-36.955
		C63.16,80.004,81.405,63.755,103.303,64c21.781,0.245,39.551,16.753,39.379,36.583
		C142.506,120.822,124.584,137.024,102.555,136.857z M87.923,117.689c0.113,0.271,0.195,1,0.509,1.098
		c0.497,0.15,1.254,0.029,1.717-0.239c3.461-2.009,6.942-3.999,10.279-6.171c1.672-1.087,2.915-1.24,4.667-0.069
		c3.174,2.122,6.543,4.004,9.872,5.93c0.618,0.358,1.421,0.446,2.137,0.66c0.093-0.738,0.425-1.529,0.242-2.204
		c-1.008-3.706-2.057-7.407-3.272-11.057c-0.461-1.381-0.101-2.159,1.077-2.99c3.183-2.247,6.311-4.561,9.397-6.915
		c0.679-0.518,1.106-1.311,1.648-1.978c-0.842-0.269-1.671-0.721-2.528-0.777c-3.931-0.252-7.867-0.451-11.806-0.545
		c-1.765-0.043-2.726-0.625-3.315-2.208c-1.292-3.474-2.766-6.894-4.261-10.3c-0.292-0.666-1.011-1.175-1.533-1.757
		c-0.504,0.607-1.183,1.15-1.48,1.833c-1.517,3.479-3.005,6.969-4.349,10.506c-0.508,1.336-1.314,1.837-2.79,1.888
		c-4.178,0.144-8.354,0.346-12.526,0.595c-0.722,0.043-1.42,0.43-2.13,0.658c0.429,0.638,0.715,1.431,1.31,1.886
		c3.083,2.36,6.186,4.707,9.405,6.904c1.459,0.995,1.805,1.96,1.283,3.539C90.22,109.769,89.146,113.611,87.923,117.689z"/>
	<path fill-rule="evenodd" clip-rule="evenodd" fill="#FCFCFC" d="M173.4,133.812c-8.553-0.143-18.369-4.181-26.366-12.011
		c-1.226-1.2-1.518-2.185-0.742-3.847c6.097-13.064,5.443-25.939-1.879-38.453c-0.916-1.564-0.825-2.522,0.281-3.878
		c9.729-11.938,26.868-17.345,42.557-13.344c15.903,4.056,27.382,16.469,29.021,31.379
		C218.648,115.319,200.247,133.938,173.4,133.812z M200.726,91.505c-0.154-0.313-0.308-0.627-0.462-0.94
		c-0.729-0.221-1.445-0.593-2.185-0.635c-4.092-0.23-8.189-0.44-12.288-0.527c-1.768-0.037-2.75-0.596-3.347-2.183
		c-1.331-3.54-2.838-7.025-4.354-10.503c-0.263-0.601-0.932-1.056-1.413-1.577c-0.487,0.52-1.168,0.971-1.431,1.573
		c-1.519,3.477-3.043,6.958-4.344,10.506c-0.596,1.619-1.579,2.14-3.329,2.181c-4.099,0.095-8.194,0.302-12.287,0.529
		c-0.646,0.036-1.269,0.415-1.901,0.634c0.348,0.597,0.547,1.36,1.072,1.763c3.084,2.357,6.183,4.707,9.408,6.897
		c1.596,1.084,2.035,2.131,1.427,3.902c-1.226,3.569-2.223,7.208-3.232,10.837c-0.154,0.556,0.116,1.215,0.188,1.826
		c0.657-0.125,1.423-0.089,1.952-0.396c3.595-2.088,7.182-4.192,10.679-6.413c1.348-0.854,2.344-0.795,3.656,0.035
		c3.301,2.092,6.677,4.091,10.08,6.043c0.723,0.413,1.691,0.465,2.547,0.685c0.009-0.761,0.19-1.559-0.005-2.272
		c-0.996-3.632-2.013-7.263-3.19-10.848c-0.445-1.355-0.158-2.159,1.042-3.004c3.31-2.336,6.52-4.788,9.8-7.159
		C199.372,92.053,200.084,91.819,200.726,91.505z"/>
	<path fill-rule="evenodd" clip-rule="evenodd" fill="#FCFCFC" d="M138.896,70.951c-5.031-3.209-9.623-6.563-14.647-9.235
		c-6.363-3.385-13.512-4.674-20.856-4.737c-1.682-0.015-2.447-0.595-3.019-1.893c-6.257-14.201-4.421-27.479,6.651-38.948
		C117.96,4.812,132.12,1.04,147.975,5.34c15.918,4.317,25.299,14.533,28.153,29.561c1.14,5.998,0.412,11.895-1.929,17.584
		c-0.282,0.687-1.315,1.495-2.085,1.576c-13.369,1.411-24.298,6.832-32.767,16.402C139.098,70.746,138.833,71.019,138.896,70.951z
		 M121.869,57.512c0.133,0.24,0.293,0.944,0.613,1.011c0.534,0.113,1.266-0.045,1.75-0.327c3.662-2.133,7.313-4.288,10.905-6.518
		c1.17-0.726,2.084-0.751,3.262-0.014c3.32,2.074,6.686,4.089,10.097,6.037c0.798,0.457,1.842,0.552,2.773,0.813
		c-0.009-0.837,0.162-1.716-0.057-2.505c-0.99-3.561-2.02-7.115-3.185-10.63c-0.451-1.362-0.078-2.171,1.095-3.003
		c3.308-2.344,6.56-4.752,9.778-7.198c0.548-0.417,0.816-1.141,1.214-1.724c-0.687-0.273-1.358-0.743-2.062-0.786
		c-4.094-0.251-8.194-0.485-12.294-0.547c-1.712-0.025-2.583-0.523-3.155-2.031c-1.365-3.609-2.91-7.163-4.451-10.714
		c-0.239-0.551-0.834-0.974-1.264-1.456c-0.501,0.487-1.214,0.896-1.469,1.474c-1.5,3.408-2.98,6.827-4.284,10.301
		c-0.632,1.684-1.492,2.451-3.588,2.449c-4.099-0.003-8.198,0.291-12.294,0.54c-0.637,0.039-1.242,0.495-1.862,0.758
		c0.34,0.532,0.55,1.203,1.037,1.573c2.907,2.211,5.771,4.49,8.862,6.47c2.18,1.396,2.781,2.777,1.894,5.139
		C123.883,50.089,123.008,53.691,121.869,57.512z"/>
	<path fill-rule="evenodd" clip-rule="evenodd" fill="#FCFCFC" d="M36.003,215.889c-3.175-0.09-4.701-1.523-5.925-3.515
		C23.065,200.972,16,189.596,8.953,178.211c-2.811-4.542-5.638-9.075-8.418-13.633c-2.135-3.499-1.395-5.948,2.372-7.943
		c2.99-1.584,5.991-3.15,9.017-4.675c3.548-1.788,6.395-1.128,8.373,2.058c10.041,16.17,20.057,32.353,30.04,48.552
		c1.912,3.102,1.103,5.705-2.235,7.506c-3.184,1.716-6.415,3.359-9.662,4.973C37.543,215.493,36.515,215.716,36.003,215.889z
		 M13.481,160.97c-2.077,0.01-3.66,1.473-3.642,3.368c0.016,1.867,1.671,3.375,3.691,3.362c2.022-0.011,3.648-1.534,3.638-3.406
		C17.158,162.391,15.57,160.96,13.481,160.97z"/>
</g>
</svg>
