<?xml version="1.0" encoding="utf-8"?>
<!-- Generator: Adobe Illustrator 16.0.0, SVG Export Plug-In . SVG Version: 6.00 Build 0)  -->
<!DOCTYPE svg PUBLIC "-//W3C//DTD SVG 1.1//EN" "http://www.w3.org/Graphics/SVG/1.1/DTD/svg11.dtd">
<svg version="1.1" id="Layer_1" xmlns="http://www.w3.org/2000/svg" xmlns:xlink="http://www.w3.org/1999/xlink" x="0px" y="0px"
	 width="100px" height="100px" viewBox="0 0 100 100" enable-background="new 0 0 100 100" xml:space="preserve">
<path fill-rule="evenodd" clip-rule="evenodd" fill="#FCFCFC" d="M85.733,89.943c-3.107,1.481-6.047,3.108-9.175,4.332
	c-8.686,3.39-17.785,4.431-27.172,3.478c-9.342-0.949-18.08-3.518-26-8.153C12.147,83.017,5.256,73.689,2.569,61.834
	C0.336,51.979,0.568,42.17,4.12,32.579c4.108-11.091,12.22-19.175,23.4-24.812c8.303-4.184,17.221-6.586,26.69-7.158
	c7.813-0.475,15.219,1.11,22.264,4.13c5.929,2.546,11.317,5.808,15.439,10.519c1.281,1.469,2.402,3.156,3.13,4.902
	c1.716,4.106-0.796,7.505-5.635,7.886c-0.915,0.072-1.902,0.082-2.763-0.155c-0.843-0.231-1.719-0.686-2.315-1.267
	c-8.481-8.232-18.786-12.777-31.322-12.234C34.69,15.183,18.033,28.092,16.112,45.992c-1.066,9.906,1.255,19.083,7.952,27.096
	c6.736,8.06,15.853,12.447,26.872,13.59c6.898,0.715,13.634,0.047,20.037-2.521c5.786-2.319,10.402-5.893,13.874-10.713
	c0.96-1.329,0.801-2.71,0.645-4.1c-0.093-0.82-0.859-1.337-1.772-1.348c-3.53-0.04-7.063-0.022-10.593-0.007
	c-0.228,0.001-0.533,0.124-0.67,0.285c-2.954,3.376-7.016,4.946-11.519,5.61c-6.472,0.955-12.83,0.393-18.92-1.873
	c-7.948-2.956-12.333-8.484-13.583-16.094c-0.775-4.715-0.505-9.412,1.108-13.977c3.137-8.88,9.927-14.061,19.954-15.629
	c9.774-1.53,18.081,1.348,24.944,7.677c1.707,1.574,1.671,3.784,0.971,5.823c-0.713,2.078-2.587,3.004-4.831,3.289
	c-1.039,0.132-2.136,0.103-3.183-0.021c-0.688-0.083-1.373-0.399-1.985-0.725c-1.862-0.992-3.605-2.201-5.544-3.037
	c-8.35-3.594-17.428,1.261-18.096,9.61c-0.181,2.245-0.081,4.473,0.861,6.601c1.721,3.868,5.116,5.78,9.42,6.668
	c3.453,0.713,6.606-0.07,9.599-1.546c1.367-0.676,2.658-1.501,3.898-2.357c1.628-1.126,3.41-1.728,5.454-1.723
	c7.098,0.006,14.19,0,21.288,0.002c3.294,0.002,5.606,2.093,5.609,5.066c0.003,11.154,0.003,22.307,0,33.459
	c0,1.927-1.146,2.972-3.256,2.975c-1.866,0.004-3.73,0.002-5.596,0c-2.17-0.002-3.308-1.035-3.318-3.026
	C85.726,93.307,85.733,91.566,85.733,89.943z"/>
</svg>
