<?xml version="1.0" encoding="utf-8"?>
<!-- Generator: Adobe Illustrator 16.0.0, SVG Export Plug-In . SVG Version: 6.00 Build 0)  -->
<!DOCTYPE svg PUBLIC "-//W3C//DTD SVG 1.1//EN" "http://www.w3.org/Graphics/SVG/1.1/DTD/svg11.dtd">
<svg version="1.1" id="Layer_2" xmlns="http://www.w3.org/2000/svg" xmlns:xlink="http://www.w3.org/1999/xlink" x="0px" y="0px"
	 width="100px" height="100px" viewBox="0 0 100 100" style="enable-background:new 0 0 100 100; fill:#fff;" xml:space="preserve">
<path style="fill-rule:evenodd;clip-rule:evenodd;" d="M57.092,41.672c0,1.505-0.005,2.863,0.001,4.221
	c0.007,2.004,1.08,3.318,2.718,3.337c1.636,0.019,2.751-1.308,2.763-3.291c0.009-1.328,0.01-2.655,0.019-3.982
	c0-0.059,0.042-0.118,0.104-0.285c0.275,0,0.592,0,0.906,0c7.462,0,14.924-0.001,22.385,0.001c2.145,0.001,3.171,1.042,3.172,3.222
	c0.002,4.515-0.016,9.03,0.013,13.543c0.007,1.036-0.338,1.842-1.023,2.584c-4.891,5.294-4.918,12.506-0.059,17.799
	c0.735,0.801,1.094,1.652,1.085,2.761c-0.035,4.58-0.008,9.161-0.019,13.742c-0.005,1.738-1.113,2.906-2.789,2.908
	c-7.755,0.012-15.51,0.006-23.265,0.004c-0.128,0-0.256-0.018-0.528-0.04c0-1.478,0.005-2.957-0.002-4.436
	c-0.006-1.174-0.399-2.143-1.467-2.724c-1.842-1.001-3.897,0.271-4.005,2.49c-0.036,0.761-0.009,1.525-0.009,2.29
	c-0.001,0.76,0,1.52,0,2.421c-0.394,0-0.737,0-1.081,0c-17.399,0-34.798,0.001-52.198,0c-2.213,0-3.222-1.025-3.222-3.271
	c-0.002-4.481,0.017-8.964-0.014-13.444c-0.007-1.031,0.306-1.847,0.992-2.596c4.957-5.409,4.952-12.55-0.007-17.95
	c-0.659-0.718-0.989-1.5-0.983-2.498c0.026-4.582,0.008-9.163,0.013-13.743c0.002-1.937,1.073-3.061,2.935-3.062
	c17.595-0.004,35.19-0.003,52.785-0.003C56.533,41.672,56.754,41.672,57.092,41.672z M42.398,87.227
	c1.702-0.13,2.985-1.649,2.714-3.321c-0.441-2.711-0.868-5.426-1.383-8.123c-0.134-0.699,0.048-1.095,0.511-1.545
	c1.91-1.855,3.796-3.736,5.675-5.622c0.832-0.836,1.152-1.836,0.73-2.996c-0.401-1.105-1.228-1.673-2.342-1.842
	c-2.638-0.398-5.272-0.819-7.916-1.167c-0.568-0.074-0.85-0.292-1.086-0.79c-1.133-2.384-2.312-4.745-3.445-7.128
	c-0.541-1.137-1.317-1.887-2.619-1.884c-1.338,0.004-2.24,0.646-2.82,1.893c-1.1,2.364-2.28,4.688-3.397,7.044
	c-0.247,0.521-0.514,0.795-1.135,0.876c-2.547,0.331-5.08,0.779-7.625,1.122c-1.233,0.166-2.176,0.657-2.622,1.89
	c-0.47,1.3,0.03,2.31,0.944,3.206c1.877,1.842,3.754,3.685,5.587,5.571c0.261,0.269,0.43,0.812,0.375,1.186
	c-0.386,2.619-0.798,5.236-1.296,7.835c-0.253,1.316-0.004,2.39,1.049,3.173c1.04,0.774,2.119,0.595,3.214,0.008
	c2.328-1.246,4.691-2.427,7.014-3.683c0.571-0.309,0.996-0.236,1.53,0.058c2.23,1.229,4.477,2.429,6.732,3.61
	C41.295,86.862,41.859,87.02,42.398,87.227z M70.779,69.904c0,4.514-0.001,9.026,0,13.539c0,2.278,0.998,3.612,2.715,3.636
	c1.716,0.021,2.768-1.338,2.768-3.586c0-9.025,0-18.052-0.001-27.077c0-0.365,0.016-0.734-0.037-1.093
	c-0.282-1.908-2.092-3-3.769-2.246c-1.212,0.545-1.679,1.583-1.678,2.891C70.781,60.613,70.779,65.259,70.779,69.904z
	 M57.097,61.201c0,0.828-0.033,1.657,0.007,2.483c0.08,1.64,1.219,2.779,2.729,2.778c1.513,0,2.67-1.133,2.725-2.778
	c0.053-1.555,0.049-3.113,0.004-4.669c-0.049-1.687-1.228-2.845-2.777-2.824c-1.491,0.021-2.614,1.188-2.685,2.824
	C57.069,59.743,57.095,60.473,57.097,61.201z M62.569,78.718c0-0.828,0.034-1.658-0.007-2.483c-0.082-1.651-1.204-2.769-2.729-2.769
	c-1.523,0-2.671,1.122-2.725,2.769c-0.053,1.555-0.048,3.113-0.005,4.668c0.047,1.643,1.186,2.802,2.682,2.821
	c1.556,0.02,2.704-1.13,2.78-2.821C62.599,80.176,62.571,79.445,62.569,78.718z"/>
<path style="fill-rule:evenodd;clip-rule:evenodd;" d="M93.774,47.799c-0.156-1.269-0.187-2.337-0.435-3.35
	c-0.902-3.703-4.066-6.239-7.817-6.314c-1.824-0.036-3.649-0.037-5.474,0.006c-0.701,0.017-1.2-0.181-1.707-0.7
	c-5.463-5.605-10.958-11.181-16.433-16.775c-0.749-0.765-1.558-1.293-2.672-1.137c-2.041,0.287-3.041,2.594-1.846,4.302
	c0.243,0.348,0.554,0.651,0.854,0.956c4.053,4.133,8.107,8.263,12.162,12.395c0.244,0.25,0.477,0.512,0.82,0.88
	c-4.397,0-8.642,0-12.542,0c-0.658-1.029-1.13-1.946-1.771-2.718c-0.796-0.96-1.717-1.815-2.609-2.689
	c-1.254-1.228-2.905-1.271-4.007-0.134c-1.113,1.148-1.053,2.778,0.187,4.069c0.428,0.446,0.932,0.818,1.401,1.223
	c-0.053,0.079-0.104,0.157-0.156,0.236c-8.997,0-17.993,0-27.256,0c4.672-4.662,9.225-9.203,13.98-13.947
	c1.104,1.2,2.133,2.438,3.286,3.542c1.565,1.497,3.939,0.782,4.493-1.295c0.294-1.106-0.105-2.016-0.86-2.797
	c-1.028-1.065-2.059-2.125-3.086-3.189c-0.02-0.02-0.022-0.057-0.05-0.135c0.206-0.222,0.421-0.467,0.648-0.699
	c5.206-5.305,10.412-10.61,15.62-15.913c1.805-1.838,3.133-1.846,4.92-0.027c3.02,3.073,6.025,6.16,9.061,9.217
	c0.813,0.818,1.209,1.725,1.213,2.91c0.023,6.817,5.479,12.388,12.189,12.445c1.157,0.009,2.073,0.363,2.862,1.216
	c0.939,1.013,1.919,1.988,2.898,2.962c2.14,2.127,4.304,4.23,6.434,6.368c1.676,1.682,1.686,3.128,0.04,4.797
	C96.724,44.922,95.289,46.306,93.774,47.799z"/>
<path style="fill-rule:evenodd;clip-rule:evenodd;" d="M24.215,68.484c1.537-0.239,2.999-0.484,4.465-0.69
	c1.053-0.148,1.777-0.694,2.271-1.651c0.714-1.383,1.478-2.738,2.308-4.266c0.692,1.425,1.34,2.702,1.938,4.004
	c0.526,1.145,1.332,1.806,2.601,1.946c1.407,0.155,2.801,0.421,4.289,0.652c-1.044,1.102-1.972,2.147-2.972,3.117
	c-0.952,0.925-1.354,1.935-1.046,3.293c0.311,1.368,0.459,2.776,0.711,4.367c-1.416-0.756-2.662-1.382-3.871-2.076
	c-1.195-0.686-2.353-0.604-3.523,0.015c-1.231,0.65-2.459,1.309-3.887,2.069c0.264-1.662,0.445-3.125,0.74-4.565
	c0.247-1.202-0.113-2.125-0.932-2.959C26.284,70.697,25.292,69.623,24.215,68.484z"/>
</svg>
