<?xml version="1.0" encoding="utf-8"?>
<!-- Generator: Adobe Illustrator 16.0.0, SVG Export Plug-In . SVG Version: 6.00 Build 0)  -->
<!DOCTYPE svg PUBLIC "-//W3C//DTD SVG 1.1//EN" "http://www.w3.org/Graphics/SVG/1.1/DTD/svg11.dtd">
<svg version="1.1" xmlns="http://www.w3.org/2000/svg" xmlns:xlink="http://www.w3.org/1999/xlink" x="0px" y="0px" width="100px"
	 height="100px" viewBox="0 0 100 100" style="enable-background:new 0 0 100 100; fill:#fff;" xml:space="preserve">
<g id="Layer_1" style="display:none;">
	<path style="display:inline;fill-rule:evenodd;clip-rule:evenodd;fill:#050606;" d="M25.086,4.515c11.945,0,23.891,0,35.836,0
		c0.104,0.053,0.202,0.133,0.313,0.156c4.47,0.959,7.392,4.233,7.751,8.786c0.055,0.698,0.326,0.97,0.931,1.187
		c3.595,1.286,7.204,2.538,10.757,3.933c4.644,1.822,6.983,6.755,5.547,11.534c-0.178,0.592-0.088,0.915,0.379,1.298
		c1.679,1.376,3.376,2.735,4.962,4.214c2.966,2.765,3.774,7.049,2.121,10.704c-0.381,0.842-1.13,1.699-1.074,2.506
		c0.059,0.863,0.859,1.681,1.352,2.509c0.843,1.416,1.448,2.918,1.512,4.579c0.151,4.017-1.546,7.036-5.015,9.046
		c-6.748,3.909-13.512,7.789-20.245,11.722c-0.723,0.422-1.3,1.102-1.929,1.678c-0.84,0.77-1.658,1.562-2.497,2.332
		c-0.592,0.544-1.252,1.021-1.794,1.609c-0.835,0.909-1.542,1.94-2.402,2.821c-0.877,0.898-1.847,1.715-2.837,2.489
		c-0.285,0.223-0.862,0.348-1.162,0.208c-0.406-0.188-0.918-0.661-0.938-1.036c-0.025-0.471,0.272-1.154,0.655-1.415
		c1.219-0.826,2.154-1.874,2.988-3.021c-4.901-1.051-9.352-3.289-14.107-4.713c-0.114,0.739-0.096,1.44-0.342,2.033
		c-0.486,1.172-0.033,1.844,0.89,2.526c2.038,1.507,3.703,3.564,6.424,4.022c0.664,0.111,0.994,0.8,0.829,1.51
		c-0.17,0.729-0.689,1.131-1.453,1.088c-0.385-0.021-0.797-0.09-1.138-0.258c-0.824-0.404-1.501-0.225-2.256,0.239
		c-2.262,1.393-4.725,1.748-7.292,1.088c-0.649-0.168-1.021-0.079-1.476,0.41c-2.906,3.123-6.446,5.202-10.583,6.244
		c-1.014,0.256-2.05,0.427-3.076,0.636c-1.448,0-2.896,0-4.344,0c-0.167-0.057-0.331-0.145-0.503-0.167
		c-8.901-1.158-16.029-7.385-18.331-16.046c-0.292-1.097-0.478-2.222-0.712-3.333c0-1.448,0-2.896,0-4.344
		c0.059-0.201,0.142-0.397,0.173-0.603c1.228-8.046,5.564-13.761,12.945-17.142c0.822-0.376,1.055-0.779,1.053-1.653
		c-0.031-13.146-0.019-26.293-0.024-39.44c-0.001-3.168,1.12-5.809,3.574-7.859C21.873,5.484,23.466,4.975,25.086,4.515z
		 M19.754,54.163c0.203,0,0.29,0.009,0.374-0.002c0.239-0.031,0.478-0.065,0.715-0.107c2.764-0.483,5.532-0.483,8.258,0.167
		c7.796,1.86,13.109,6.576,15.939,14.072c0.185,0.488,0.382,0.714,0.946,0.711c4.553-0.025,9.108-0.021,13.662-0.018
		c1.306,0.001,2.499-0.365,3.572-1.093c2.187-1.481,3.056-3.588,3.05-6.189c-0.026-11.46-0.012-22.921-0.011-34.381
		c0-0.361-0.008-0.726,0.037-1.083c0.096-0.762,0.555-1.217,1.313-1.241c0.771-0.025,1.222,0.447,1.387,1.174
		c0.059,0.26,0.037,0.54,0.037,0.811c0.002,11.611,0.007,23.223-0.01,34.833c-0.001,0.838-0.068,1.696-0.257,2.509
		c-1.054,4.542-4.782,7.427-9.61,7.452c-4.011,0.021-8.022,0.005-12.034,0.005c-0.35,0-0.7,0-1.115,0
		c0.085,0.856,0.201,1.571,0.213,2.288c0.008,0.477,0.199,0.678,0.619,0.829c3.818,1.376,7.619,2.805,11.45,4.146
		c3.688,1.292,7.385-0.429,8.729-4.108c5.504-15.053,10.981-30.115,16.438-45.185c1.349-3.723-0.414-7.388-4.134-8.772
		c-2.847-1.06-5.706-2.083-8.562-3.121c-0.528-0.192-1.062-0.374-1.727-0.608c0,1.179,0.007,2.225-0.002,3.271
		c-0.01,1.144-0.487,1.739-1.38,1.746c-0.907,0.007-1.38-0.557-1.39-1.726c-0.015-1.99,0.012-3.981-0.014-5.971
		c-0.009-0.719-0.028-1.458-0.198-2.15c-0.785-3.204-3.406-5.188-6.835-5.19C48.54,7.22,37.863,7.29,27.188,7.194
		c-4.143-0.038-7.504,2.845-7.469,7.435c0.1,12.847,0.035,25.695,0.035,38.542C19.754,53.493,19.754,53.815,19.754,54.163z
		 M24.509,64.622c-5.916,0.024-10.813,4.941-10.806,10.849c0.007,5.91,4.916,10.818,10.828,10.829
		c5.934,0.011,10.896-4.973,10.851-10.896C35.337,69.478,30.416,64.599,24.509,64.622z M72.706,67.355
		c0.034,0.033,0.067,0.067,0.102,0.101c0.144-0.151,0.296-0.296,0.43-0.456c3.159-3.763,6.316-7.527,9.474-11.291
		c2.441-2.909,4.888-5.813,7.321-8.729c2.234-2.675,2.405-6.313,0.168-8.757c-1.529-1.669-3.376-3.048-5.194-4.657
		C80.862,44.947,76.784,56.151,72.706,67.355z M72.747,71.854c0.278-0.057,0.369-0.053,0.437-0.092
		c5.473-3.16,10.95-6.313,16.409-9.494c1.376-0.803,2.28-2.034,2.806-3.535c1.067-3.046-0.342-5.464-1.991-7.927
		C84.523,57.82,78.691,64.77,72.747,71.854z M35.198,91.161c2.041-1.433,3.711-3.024,5.017-5.067
		c-1.619-0.933-3.143-1.811-4.342-2.501c-1.158,1.115-2.17,2.089-3.246,3.125C33.396,88.046,34.266,89.55,35.198,91.161z
		 M13.243,67.351c1.12-1.103,2.122-2.09,3.207-3.16c-0.757-1.309-1.638-2.831-2.563-4.431c-2.03,1.409-3.681,3.02-5.03,5.052
		C10.45,65.733,11.953,66.604,13.243,67.351z M40.234,64.81c-1.385-2.038-3.012-3.673-5.044-5.038
		c-0.93,1.611-1.811,3.137-2.53,4.384c1.096,1.11,2.085,2.112,3.165,3.206C37.113,66.615,38.637,65.734,40.234,64.81z
		 M13.252,83.565c-1.304,0.753-2.826,1.633-4.417,2.553c1.44,2.027,3.024,3.706,5.074,5.016c0.929-1.614,1.806-3.14,2.528-4.394
		C15.333,85.64,14.355,84.665,13.252,83.565z M37.063,69.823c0.32,1.356,0.604,2.605,0.923,3.846
		c0.039,0.152,0.268,0.363,0.412,0.365c1.669,0.025,3.339,0.017,5.043,0.017c-0.143-2.474-0.77-4.667-1.824-6.86
		C40.029,68.108,38.506,68.989,37.063,69.823z M16.274,58.387c0.923,1.599,1.812,3.14,2.631,4.56
		c1.369-0.327,2.563-0.599,3.748-0.91c0.185-0.048,0.46-0.271,0.463-0.418c0.033-1.672,0.021-3.345,0.021-5.062
		C20.67,56.713,18.469,57.322,16.274,58.387z M7.449,67.181c-1.019,2.261-1.702,4.438-1.789,6.875c1.69,0,3.308,0.015,4.924-0.021
		c0.185-0.004,0.475-0.255,0.525-0.443c0.326-1.209,0.599-2.432,0.917-3.768C10.591,68.996,9.069,68.116,7.449,67.181z
		 M41.639,83.739c1.009-2.259,1.703-4.431,1.78-6.886c-1.692,0-3.308-0.015-4.923,0.021c-0.183,0.004-0.469,0.263-0.521,0.453
		c-0.326,1.209-0.598,2.432-0.917,3.768C38.494,81.924,40.017,82.803,41.639,83.739z M25.943,94.354
		c2.485-0.136,4.676-0.766,6.867-1.818c-0.915-1.586-1.794-3.109-2.63-4.56c-1.35,0.32-2.6,0.601-3.837,0.928
		c-0.165,0.044-0.38,0.318-0.383,0.489C25.931,91.01,25.943,92.627,25.943,94.354z M25.941,56.572c0,1.718-0.011,3.31,0.016,4.901
		c0.003,0.185,0.183,0.488,0.336,0.529c1.264,0.336,2.54,0.623,3.889,0.943c0.852-1.479,1.729-3,2.633-4.569
		C30.587,57.336,28.399,56.685,25.941,56.572z M7.465,83.734c1.615-0.936,3.136-1.816,4.562-2.642
		c-0.32-1.344-0.597-2.566-0.916-3.778c-0.047-0.179-0.288-0.434-0.443-0.437c-1.645-0.032-3.29-0.021-5.019-0.021
		C5.776,79.308,6.409,81.497,7.465,83.734z M23.143,94.353c0-1.728,0.018-3.345-0.025-4.961c-0.005-0.182-0.331-0.446-0.556-0.516
		c-1-0.306-2.012-0.572-3.031-0.807c-0.231-0.054-0.648-0.006-0.739,0.143c-0.855,1.403-1.659,2.839-2.512,4.328
		C18.47,93.579,20.658,94.222,23.143,94.353z M42.819,87.324c1.745,0.237,3.289,0.126,4.775-0.852
		c-1.048-0.876-2.01-1.681-2.994-2.503C44.003,85.095,43.445,86.145,42.819,87.324z"/>
	<path style="display:inline;fill-rule:evenodd;clip-rule:evenodd;fill:#050606;" d="M43.051,19.376
		c0.521,0.475,1.03,0.795,1.346,1.249c2.928,4.204,5.822,8.431,8.726,12.651c0.872,1.266,1.724,2.545,2.619,3.794
		c0.505,0.705,0.536,1.341,0.034,2.067c-3.838,5.553-7.654,11.121-11.492,16.674c-0.776,1.123-1.773,1.128-2.546,0.011
		c-3.855-5.577-7.689-11.167-11.541-16.747c-0.456-0.66-0.439-1.262,0.01-1.914c3.85-5.581,7.683-11.172,11.548-16.742
		C42.021,20.04,42.504,19.809,43.051,19.376z M53.128,38.129c-3.384-4.917-6.72-9.763-10.122-14.705
		c-3.422,4.973-6.76,9.824-10.121,14.708c3.368,4.892,6.715,9.753,10.124,14.705C46.442,47.847,49.767,43.015,53.128,38.129z"/>
	<path style="display:inline;fill-rule:evenodd;clip-rule:evenodd;fill:#050606;" d="M57.981,62.276
		c0-1.117-0.014-2.165,0.004-3.213c0.016-1.005,0.508-1.587,1.317-1.61c0.83-0.023,1.404,0.62,1.417,1.624
		c0.015,1.049,0.004,2.097,0.004,3.187c0.452,0.041,0.837,0.058,1.215,0.114c0.761,0.116,1.184,0.567,1.189,1.344
		c0.006,0.787-0.463,1.313-1.188,1.344c-1.74,0.073-3.488,0.072-5.229-0.006c-0.729-0.033-1.199-0.594-1.183-1.358
		c0.017-0.755,0.468-1.215,1.225-1.327C57.105,62.322,57.465,62.315,57.981,62.276z"/>
	<path style="display:inline;fill-rule:evenodd;clip-rule:evenodd;fill:#050606;" d="M77.333,28.934
		c-0.4,1.097-0.749,2.086-1.124,3.065c-0.369,0.964-1.089,1.348-1.885,1.035c-0.736-0.289-1.021-1.055-0.7-1.967
		c0.347-0.989,0.718-1.968,1.116-3.054c-0.332-0.132-0.628-0.241-0.917-0.366c-0.823-0.356-1.171-1.075-0.887-1.818
		c0.265-0.689,1.004-1.035,1.794-0.764c1.477,0.507,2.946,1.038,4.405,1.595c0.892,0.34,1.238,1.089,0.936,1.866
		c-0.275,0.707-1.011,0.984-1.904,0.708C77.915,29.156,77.669,29.055,77.333,28.934z"/>
	<path style="display:inline;fill-rule:evenodd;clip-rule:evenodd;fill:#050606;" d="M25.287,13.906
		c-0.471,0-0.833,0.033-1.185-0.007c-0.759-0.086-1.267-0.68-1.217-1.421c0.052-0.771,0.477-1.252,1.256-1.267
		c1.687-0.031,3.375-0.028,5.063,0c0.788,0.012,1.199,0.521,1.281,1.263c0.077,0.699-0.485,1.337-1.228,1.425
		c-0.354,0.042-0.718,0.007-1.226,0.007c0,1.161,0.017,2.262-0.005,3.362c-0.018,0.903-0.479,1.454-1.214,1.529
		c-0.851,0.087-1.498-0.532-1.52-1.509C25.268,16.207,25.287,15.125,25.287,13.906z"/>
	<path style="display:inline;fill-rule:evenodd;clip-rule:evenodd;fill:#050606;" d="M30.947,75.522
		c-0.011,1.538-0.286,3.097-1.178,4.484c-1.601,2.486-4.523,2.532-6.01-0.02c-1.739-2.986-1.727-6.12,0.029-9.095
		c1.477-2.501,4.365-2.451,5.96-0.013C30.651,72.261,30.933,73.819,30.947,75.522z M28.428,75.501
		c-0.355-1.097-0.612-2.171-1.054-3.164c-0.315-0.706-0.748-0.669-1.225-0.059c-1.113,1.427-1.119,4.89-0.011,6.348
		c0.478,0.628,0.9,0.675,1.223-0.025C27.803,77.64,28.062,76.596,28.428,75.501z"/>
	<path style="display:inline;fill-rule:evenodd;clip-rule:evenodd;fill:#050606;" d="M18.122,75.381
		c0-1.384-0.013-2.767,0.003-4.149c0.014-1.132,0.521-1.742,1.39-1.731c0.871,0.011,1.374,0.634,1.376,1.755
		c0.007,2.856,0.002,5.713,0.002,8.57c0,0.688-0.229,1.339-0.925,1.475c-0.452,0.089-1.076-0.08-1.441-0.366
		c-0.281-0.22-0.375-0.799-0.388-1.223C18.094,78.269,18.122,76.824,18.122,75.381z"/>
</g>
<g id="Layer_2">
	<path style="fill-rule:evenodd;clip-rule:evenodd;" d="M1.798,76.447c0-22.652,0-45.303,0-67.955
		c0.069-0.207,0.152-0.411,0.204-0.622C2.631,5.31,4.047,3.309,6.361,2.042c0.955-0.522,2.044-0.797,3.073-1.185
		c14.189,0,28.378,0,42.567,0c0.082,0.046,0.159,0.114,0.248,0.136c4.866,1.194,7.405,4.423,7.406,9.457
		c0.003,21.312,0.002,42.623-0.004,63.935c0,0.729,0.012,1.474-0.124,2.185c-0.853,4.473-4.443,7.457-9.035,7.479
		c-5.853,0.028-11.706,0.007-17.558,0.007c-7.284,0-14.568,0.013-21.853-0.005c-4.604-0.011-8.056-2.79-9.115-7.275
		C1.939,76.658,1.856,76.556,1.798,76.447z M30.71,68.453c1.297,0.007,2.094-0.717,2.72-1.771
		c4.434-7.479,8.872-14.955,13.335-22.417c0.75-1.255,0.755-2.403,0.003-3.656c-2.026-3.372-3.991-6.779-6.003-10.159
		c-2.484-4.174-4.969-8.349-7.514-12.485c-0.356-0.579-0.988-1.115-1.615-1.375c-1.357-0.563-2.659,0.042-3.516,1.483
		c-2.87,4.828-5.722,9.667-8.591,14.497c-1.59,2.675-3.177,5.352-4.811,8c-0.789,1.278-0.779,2.455,0.003,3.74
		c1.467,2.41,2.836,4.88,4.282,7.304c3.092,5.181,6.2,10.351,9.317,15.517C28.851,68.007,29.674,68.443,30.71,68.453z
		 M53.171,73.023c-0.052-0.735-0.036-1.505-0.174-2.246c-0.274-1.48-1.413-2.29-2.965-2.205c-1.403,0.077-2.517,1.111-2.599,2.547
		c-0.071,1.233-0.067,2.477,0,3.71c0.078,1.441,1.18,2.495,2.571,2.584c1.568,0.101,2.729-0.747,3.01-2.282
		C53.139,74.451,53.122,73.745,53.171,73.023z M14.024,11.913c0-0.635,0.036-1.271-0.007-1.903
		c-0.099-1.423-1.174-2.452-2.604-2.538C9.888,7.38,8.616,8.239,8.474,9.692c-0.141,1.441-0.14,2.916-0.007,4.357
		c0.134,1.458,1.399,2.35,2.903,2.279c1.407-0.066,2.528-1.108,2.643-2.513C14.064,13.185,14.021,12.547,14.024,11.913z"/>
	<path style="fill-rule:evenodd;clip-rule:evenodd;" d="M99.53,30.635c-2.356,6.62-4.703,13.244-7.071,19.86
		c-2.361,6.594-4.742,13.181-7.117,19.769c-2.461,6.827-4.928,13.651-7.389,20.479c-0.376,1.042-0.686,2.11-1.107,3.133
		c-1.212,2.938-3.392,4.757-6.488,5.479c-0.145,0.033-0.276,0.126-0.414,0.19c-0.954,0-1.908,0-2.863,0
		c-1.458-0.5-2.917-0.999-4.376-1.498c-0.002-0.061-0.004-0.121-0.006-0.182c0.331-0.083,0.666-0.154,0.993-0.25
		c3.245-0.95,5.978-2.698,7.923-5.476c1.62-2.313,2.491-4.948,2.936-7.754c0.659-4.167,1.446-8.313,2.17-12.471
		c1.312-7.53,2.611-15.063,3.925-22.595c1.036-5.938,2.104-11.871,3.123-17.812c0.654-3.813,1.262-7.634,1.854-11.458
		c0.101-0.648,0.015-1.326,0.015-2.143c0.953,0.335,1.811,0.63,2.662,0.938c1.729,0.625,3.464,1.234,5.181,1.892
		c3.136,1.201,5.129,3.419,5.872,6.722c0.025,0.112,0.118,0.208,0.18,0.312C99.53,28.726,99.53,29.68,99.53,30.635z"/>
	<path style="fill-rule:evenodd;clip-rule:evenodd;" d="M46.017,89.729c1.35,0,2.7-0.004,4.05,0.001
		c1.984,0.008,3.928-0.228,5.792-0.951c5.813-2.255,9.509-7.627,9.511-13.884c0.008-21.627,0.003-43.254,0.003-64.881
		c0-0.345,0-0.691,0-1.159c2.791,0.528,5.584,0.76,8.171,1.614c3.977,1.313,7.254,5.197,6.268,10.712
		c-1.776,9.932-3.512,19.871-5.258,29.807c-1.152,6.562-2.294,13.125-3.439,19.688c-0.835,4.781-1.636,9.568-2.514,14.342
		c-0.495,2.686-2.097,4.594-4.367,6.082c-2.187,1.432-4.47,1.522-6.907,1.021c-3.765-0.773-7.538-1.502-11.307-2.25
		C46.018,89.824,46.017,89.776,46.017,89.729z"/>
	<path style="fill-rule:evenodd;clip-rule:evenodd;" d="M30.685,60.11c-1.797-3.089-3.52-6.082-5.274-9.056
		c-1.532-2.598-3.082-5.185-4.666-7.751c-0.378-0.612-0.42-1.059-0.022-1.704c2-3.241,3.956-6.511,5.896-9.789
		c1.354-2.289,2.66-4.606,4.078-7.068c1.233,2.045,2.386,3.928,3.509,5.828c1.339,2.265,2.646,4.548,3.98,6.815
		c0.869,1.478,1.741,2.955,2.653,4.406c0.297,0.472,0.289,0.817-0.001,1.292c-1.543,2.517-3.061,5.05-4.565,7.59
		c-1.664,2.809-3.304,5.633-4.958,8.449C31.142,59.419,30.947,59.701,30.685,60.11z"/>
</g>
</svg>
